<svg width="164" height="140" viewBox="0 0 164 140" fill="none" xmlns="http://www.w3.org/2000/svg">
<ellipse cx="82.1378" cy="68.7144" rx="78.1915" ry="65.4213" fill="#0D9DD4"/>
<path d="M152.14 107.738C150.181 111.145 144.825 116.463 141.595 118.96C141.537 119.007 141.478 119.054 141.42 119.102C140.661 119.711 139.953 120.282 139.102 120.941C137.065 122.472 134.326 124.669 127.951 127.937C126.141 128.955 124.288 129.906 122.403 130.784C109.795 136.662 95.8878 139.378 82.1378 139.153C73.688 139.021 65.2734 137.79 57.1779 135.451C56.906 135.381 56.6299 135.308 56.3517 135.234C50.9684 133.841 44.4934 131.338 40.6826 129.237C35.8242 126.604 32.7692 124.399 30.3341 122.537C16.0555 112.37 4.9296 97.0294 1.84554 79.4988C1.20684 75.9426 0.891716 72.3316 0.902158 68.7144C0.907755 66.7803 1.00458 64.8689 1.19405 62.9502C1.69369 57.8789 2.85376 52.873 4.61143 48.0955C5.55581 45.2844 6.64283 42.6685 7.78652 40.3108C9.39532 36.993 11.1156 34.1817 12.6983 31.9789C16.482 26.6344 21.9414 21.5553 26.3153 18.3166C27.0285 17.78 27.7106 17.2862 28.3428 16.8402C31.783 14.2226 35.4348 11.8818 39.2309 9.83234C39.5045 9.7326 39.7828 9.63385 40.0635 9.53672C43.5727 8.34816 47.6298 6.41164 54.3861 4.30382C57.3133 3.40538 60.7886 2.49293 64.9076 1.77959C67.572 1.32548 68.9748 1.35416 70.117 1.37011C70.4507 1.3765 70.7638 1.38397 71.0797 1.38393C72.16 1.38441 73.2866 1.13653 74.6091 0.874933C76.3249 0.537763 78.424 0.165684 81.2002 0.359597C81.5189 0.382056 81.8314 0.404583 82.1378 0.427063C90.2996 1.09287 93.9493 1.29329 96.8409 1.33665C97.712 1.36291 98.4965 1.39697 99.3043 1.48823C101.912 1.77068 105.51 2.7683 108.151 3.77754C110.235 4.54417 114.531 5.756 117.746 6.84389C118.974 7.25056 120.56 7.92721 122.415 8.81341C124.321 9.72385 126.499 10.8535 128.818 12.1009C134.66 15.2856 137.504 17.4804 139.781 19.2054C140.427 19.7053 141.025 20.1852 141.613 20.6686C143.469 22.1918 145.685 24.2287 147.771 26.4408C150.284 29.087 152.593 31.9976 154.259 34.3018C158.247 40.4814 161.201 47.3686 162.8 54.569C163.632 58.2665 163.671 61.9562 163.135 64.6201C162.599 67.2855 161.625 68.717 160.668 68.7144C159.697 68.7113 158.802 67.3095 157.928 64.9848C157.055 62.6468 156.216 59.5717 155.353 56.3864C153.63 49.9557 150.667 43.8931 146.806 38.4725C142.1 31.8581 136.088 26.187 129.347 21.5594C124.636 18.3236 119.535 15.6057 114.204 13.4366C113.657 13.2141 113.106 12.9965 112.552 12.7845C107.936 11.3008 103.216 10.2969 99.8769 9.70151C97.1207 9.20521 95.1297 8.78725 93.3951 8.45486C92.214 8.23019 91.1564 8.05222 90.0727 7.96656C89.49 7.92075 88.706 7.87153 87.7481 7.82951C86.2198 7.76224 84.3033 7.71889 82.1378 7.73854C78.7471 7.76379 74.8509 7.97051 71.1628 8.28836C68.4783 8.51257 65.3665 8.83393 62.4054 9.31313C58.175 9.98042 54.264 10.9999 52.3975 11.7641C49.1055 13.0885 45.3311 14.6109 42.1065 16.199C39.0312 17.6991 36.4378 19.2469 35.1165 20.3289C33.5403 21.6237 32.0948 22.5578 30.0069 24.0785C28.574 25.1321 26.8252 26.4734 24.6685 28.5344C22.1906 30.9191 20.5179 32.6925 19.1364 34.237C17.2089 36.4262 15.8265 38.1684 14.3393 41.0861C12.6952 44.3285 11.276 47.8046 10.1966 50.5536C9.69982 51.8046 9.22755 53.2732 8.81403 54.8182C8.26259 56.8662 7.82127 59.049 7.4392 61.0464C7.12228 62.7012 6.80875 64.0553 6.56201 65.2864C6.48541 65.6702 6.41662 66.0337 6.35759 66.391C6.32537 67.1619 6.31016 67.9365 6.31243 68.7144C6.31413 69.2952 6.32558 69.874 6.34671 70.4507C6.38395 70.6682 6.42611 70.8961 6.47137 71.1332C6.69912 72.32 7.01432 73.779 7.35376 75.5574C7.89777 78.3763 8.32687 80.8439 8.95965 83.4335C9.45643 85.4439 10.0837 87.5238 11.0935 89.7925C11.7811 91.3377 12.6912 93.0426 13.6799 94.6747C15.1432 97.1061 16.7886 99.364 17.8847 100.975C18.2924 101.577 18.5779 102.147 18.8696 102.711C18.8707 102.714 18.8718 102.716 18.873 102.719C18.8928 102.757 18.9129 102.795 18.9329 102.834C21.9436 106.527 25.3835 109.873 29.1194 112.83C29.4558 113.069 29.7978 113.309 30.139 113.544C31.8109 114.699 33.4758 115.724 34.6435 116.284C35.8923 116.889 38.86 118.695 42.1408 120.281C44.2898 121.332 46.5625 122.299 48.4552 122.973C49.5663 123.37 50.5518 123.895 51.5842 124.418C52.5493 124.906 53.5521 125.389 54.7075 125.74C55.2865 125.916 55.9281 126.068 56.6112 126.22C57.2094 126.352 57.8443 126.486 58.5065 126.64C59.1235 126.782 60.4573 127.218 62.1961 127.707C63.2767 128.01 64.4969 128.329 65.8011 128.621C69.2767 129.192 72.7918 129.555 76.3041 129.714C77.0435 129.655 77.6884 129.55 78.2005 129.395C78.5664 129.284 78.8749 129.143 79.1929 128.998C79.625 128.801 80.0699 128.595 80.678 128.431C81.1533 128.303 81.7113 128.253 82.0873 128.309C82.1045 128.312 82.1213 128.315 82.1378 128.318C82.2887 128.345 82.409 128.389 82.5192 128.429C82.6592 128.48 82.7845 128.525 82.9368 128.522C83.0467 128.52 83.1606 128.483 83.3003 128.437C83.5235 128.363 83.8127 128.268 84.2536 128.255C85.8856 128.205 87.7691 128.139 89.5813 128.014C91.6215 127.875 93.5854 127.662 95.1533 127.399C96.8953 127.11 99.4061 126.801 101.908 126.353C103.647 126.045 105.39 125.672 106.854 125.275C108.291 124.887 109.748 124.331 111.13 123.756C112.801 123.063 114.361 122.346 115.758 121.872C116.04 121.776 116.435 121.763 116.932 121.742C117.284 121.727 117.693 121.704 118.144 121.644C119.854 120.848 121.536 119.995 123.181 119.09C123.229 119.041 123.279 118.99 123.328 118.939C123.329 118.938 123.329 118.937 123.33 118.936C124.456 117.764 125.915 116.181 128.54 114.849C129.208 114.508 129.697 114.379 130.136 114.262C130.567 114.147 130.953 114.04 131.409 113.737C131.923 113.394 132.454 112.865 133.012 112.286C133.796 111.473 134.644 110.549 135.68 109.835C135.751 109.786 135.827 109.733 135.906 109.678C136.652 109.16 137.754 108.361 138.932 107.645C141.821 104.89 144.468 101.885 146.795 98.6519C150.675 93.2675 153.661 87.227 155.411 80.8023C156.27 77.6812 157.104 74.6685 157.969 72.3735C158.835 70.093 159.715 68.717 160.668 68.7144C161.607 68.7117 162.563 70.1158 163.104 72.7262C163.644 75.3375 163.637 78.9474 162.867 82.5845C161.625 88.5105 159.47 94.2517 156.563 99.5699C156.421 99.854 156.276 100.138 156.128 100.419C155.026 102.514 154.019 104.481 152.917 106.413C152.664 106.856 152.406 107.298 152.14 107.738Z" fill="black"/>
</svg>
